<svg xmlns="http://www.w3.org/2000/svg" width="48" height="56" style=""><rect id="backgroundrect" width="100%" height="100%" x="0" y="0" fill="none" stroke="none"/><title>Bag, shop, shopping, interface icon</title><g class="currentLayer" style=""><title>Layer 1</title><g data-name="Layer 1" id="svg_1" class="" fill="#919191" fill-opacity="1" stroke-opacity="1" stroke="#ffffff"><path d="M24.01105867310133,0 c-5,0 -9,3.59 -9,8 v6 H6.011058673101331 a2,2 0 0 0 -2,1.79 l-4,38 A2,2 0 0 0 2.0110586731013314,56 H46.01105867310133 a2,2 0 0 0 2,-2.21 l-4,-38 A2,2 0 0 0 42.01105867310133,14 H33.01105867310133 V8 C33.01105867310133,3.59 29.01105867310133,0 24.01105867310133,0 zm-5,8 c0,-2.21 2.24,-4 5,-4 s5,1.79 5,4 v6 H19.01105867310133 zM40.211058673101334,18 l3.58,34 H4.231058673101332 L7.811058673101333,18 H15.011058673101331 v4 a2,2 0 0 0 4,0 V18 H29.01105867310133 v4 a2,2 0 0 0 4,0 V18 z" id="svg_2" fill="#919191" fill-opacity="1" stroke="#ffffff" stroke-opacity="1"/></g></g></svg>